<svg width="240" height="60" viewBox="0 0 240 60" fill="none" xmlns="http://www.w3.org/2000/svg">
<g clip-path="url(#clip0_509_1015)">
<path d="M16 0.5H72.5V59.5H16C7.43959 59.5 0.5 52.5604 0.5 44V16C0.5 7.43959 7.43959 0.5 16 0.5Z" fill="#EFCF9C" stroke="#3D0A1D"/>
<rect x="52.5" y="0.5" width="187" height="59" rx="15.5" fill="#143F2E" stroke="#3D0A1D"/>
<path d="M223.729 30.5449C223.729 31.1243 223.556 31.5638 223.211 31.8633C222.872 32.1628 222.423 32.3125 221.863 32.3125H217.928C218.077 32.8724 218.344 33.3444 218.729 33.7285C219.113 34.1061 219.666 34.2949 220.389 34.2949C220.675 34.2949 220.958 34.2363 221.238 34.1191C221.525 33.9954 221.792 33.8522 222.039 33.6895C222.293 33.5267 222.514 33.3867 222.703 33.2695C222.892 33.1458 223.035 33.084 223.133 33.084C223.322 33.084 223.458 33.1523 223.543 33.2891C223.628 33.4193 223.67 33.569 223.67 33.7383C223.67 34.3307 223.53 34.8516 223.25 35.3008C222.977 35.7435 222.612 36.1113 222.156 36.4043C221.707 36.6973 221.212 36.9154 220.672 37.0586C220.138 37.2083 219.611 37.2832 219.09 37.2832C218.068 37.2832 217.166 37.0716 216.385 36.6484C215.604 36.2253 214.992 35.6328 214.549 34.8711C214.113 34.1029 213.895 33.2012 213.895 32.166C213.895 31.0592 214.106 30.0957 214.529 29.2754C214.959 28.4551 215.574 27.8203 216.375 27.3711C217.176 26.9154 218.136 26.6875 219.256 26.6875C220.031 26.6875 220.757 26.834 221.434 27.127C222.117 27.4199 222.671 27.8529 223.094 28.4258C223.517 28.9987 223.729 29.7051 223.729 30.5449ZM217.752 30.8086C217.752 30.8802 217.752 30.9518 217.752 31.0234H218.768C219.015 31.0234 219.184 30.9681 219.275 30.8574C219.367 30.7402 219.412 30.5645 219.412 30.3301C219.412 30.1738 219.393 29.9688 219.354 29.7148C219.314 29.4609 219.236 29.2331 219.119 29.0312C219.008 28.8294 218.846 28.7285 218.631 28.7285C218.436 28.7285 218.279 28.8099 218.162 28.9727C218.045 29.1289 217.957 29.3275 217.898 29.5684C217.84 29.8027 217.801 30.0339 217.781 30.2617C217.762 30.4896 217.752 30.6719 217.752 30.8086Z" fill="white"/>
<path d="M213.123 30.5449C213.123 31.1243 212.951 31.5638 212.605 31.8633C212.267 32.1628 211.818 32.3125 211.258 32.3125H207.322C207.472 32.8724 207.739 33.3444 208.123 33.7285C208.507 34.1061 209.061 34.2949 209.783 34.2949C210.07 34.2949 210.353 34.2363 210.633 34.1191C210.919 33.9954 211.186 33.8522 211.434 33.6895C211.688 33.5267 211.909 33.3867 212.098 33.2695C212.286 33.1458 212.43 33.084 212.527 33.084C212.716 33.084 212.853 33.1523 212.938 33.2891C213.022 33.4193 213.064 33.569 213.064 33.7383C213.064 34.3307 212.924 34.8516 212.645 35.3008C212.371 35.7435 212.007 36.1113 211.551 36.4043C211.102 36.6973 210.607 36.9154 210.066 37.0586C209.533 37.2083 209.005 37.2832 208.484 37.2832C207.462 37.2832 206.561 37.0716 205.779 36.6484C204.998 36.2253 204.386 35.6328 203.943 34.8711C203.507 34.1029 203.289 33.2012 203.289 32.166C203.289 31.0592 203.501 30.0957 203.924 29.2754C204.354 28.4551 204.969 27.8203 205.77 27.3711C206.57 26.9154 207.531 26.6875 208.65 26.6875C209.425 26.6875 210.151 26.834 210.828 27.127C211.512 27.4199 212.065 27.8529 212.488 28.4258C212.911 28.9987 213.123 29.7051 213.123 30.5449ZM207.146 30.8086C207.146 30.8802 207.146 30.9518 207.146 31.0234H208.162C208.41 31.0234 208.579 30.9681 208.67 30.8574C208.761 30.7402 208.807 30.5645 208.807 30.3301C208.807 30.1738 208.787 29.9688 208.748 29.7148C208.709 29.4609 208.631 29.2331 208.514 29.0312C208.403 28.8294 208.24 28.7285 208.025 28.7285C207.83 28.7285 207.674 28.8099 207.557 28.9727C207.439 29.1289 207.352 29.3275 207.293 29.5684C207.234 29.8027 207.195 30.0339 207.176 30.2617C207.156 30.4896 207.146 30.6719 207.146 30.8086Z" fill="white"/>
<path d="M200.74 29.5781V34.0605C200.74 34.5228 200.802 34.8092 200.926 34.9199C201.056 35.0241 201.339 35.1022 201.775 35.1543C202.12 35.1999 202.394 35.265 202.596 35.3496C202.798 35.4342 202.898 35.6882 202.898 36.1113C202.898 36.4043 202.811 36.6257 202.635 36.7754C202.459 36.9251 202.228 37 201.941 37H195.936C195.662 37 195.434 36.9284 195.252 36.7852C195.076 36.6354 194.988 36.4173 194.988 36.1309C194.988 35.7988 195.057 35.571 195.193 35.4473C195.33 35.3236 195.486 35.2292 195.662 35.1641C195.844 35.0924 196.004 34.9818 196.141 34.832C196.277 34.6823 196.346 34.4121 196.346 34.0215V30.252C196.346 30.0111 196.261 29.832 196.092 29.7148C195.929 29.5977 195.74 29.4935 195.525 29.4023C195.311 29.3047 195.118 29.181 194.949 29.0312C194.786 28.875 194.705 28.6439 194.705 28.3379C194.705 28.071 194.793 27.8691 194.969 27.7324C195.145 27.5892 195.356 27.5176 195.604 27.5176H196.375V27.4102C196.375 27.3516 196.277 27.2441 196.082 27.0879C195.893 26.9316 195.701 26.7298 195.506 26.4824C195.311 26.235 195.213 25.9551 195.213 25.6426C195.213 25.0632 195.34 24.5749 195.594 24.1777C195.854 23.7741 196.193 23.4518 196.609 23.2109C197.033 22.9635 197.495 22.7845 197.996 22.6738C198.497 22.5632 198.992 22.5078 199.48 22.5078C199.923 22.5078 200.379 22.5599 200.848 22.6641C201.316 22.7682 201.753 22.9342 202.156 23.1621C202.566 23.3835 202.895 23.6797 203.143 24.0508C203.396 24.4154 203.523 24.8613 203.523 25.3887C203.523 25.9225 203.374 26.3457 203.074 26.6582C202.775 26.9707 202.355 27.127 201.814 27.127C201.248 27.127 200.792 26.9609 200.447 26.6289C200.109 26.2969 199.939 25.8444 199.939 25.2715C199.939 25.0762 199.93 24.8841 199.91 24.6953C199.897 24.5 199.839 24.3405 199.734 24.2168C199.63 24.0866 199.448 24.0215 199.188 24.0215C198.921 24.0215 198.742 24.1126 198.65 24.2949C198.566 24.4707 198.523 24.6725 198.523 24.9004C198.523 25.1608 198.615 25.3952 198.797 25.6035C198.986 25.8118 199.201 26.0104 199.441 26.1992C199.689 26.388 199.904 26.5833 200.086 26.7852C200.275 26.9805 200.369 27.1953 200.369 27.4297V27.5176H202.156C202.397 27.5176 202.605 27.5794 202.781 27.7031C202.957 27.8203 203.045 28.0124 203.045 28.2793C203.045 28.6764 202.915 28.9694 202.654 29.1582C202.394 29.3405 202.085 29.4577 201.727 29.5098C201.368 29.5553 201.04 29.5781 200.74 29.5781Z" fill="white"/>
<path d="M192.146 29.5781V34.0605C192.146 34.5228 192.208 34.8092 192.332 34.9199C192.462 35.0241 192.745 35.1022 193.182 35.1543C193.527 35.1999 193.8 35.265 194.002 35.3496C194.204 35.4342 194.305 35.6882 194.305 36.1113C194.305 36.4043 194.217 36.6257 194.041 36.7754C193.865 36.9251 193.634 37 193.348 37H187.342C187.068 37 186.84 36.9284 186.658 36.7852C186.482 36.6354 186.395 36.4173 186.395 36.1309C186.395 35.7988 186.463 35.571 186.6 35.4473C186.736 35.3236 186.893 35.2292 187.068 35.1641C187.251 35.0924 187.41 34.9818 187.547 34.832C187.684 34.6823 187.752 34.4121 187.752 34.0215V30.252C187.752 30.0111 187.667 29.832 187.498 29.7148C187.335 29.5977 187.146 29.4935 186.932 29.4023C186.717 29.3047 186.525 29.181 186.355 29.0312C186.193 28.875 186.111 28.6439 186.111 28.3379C186.111 28.071 186.199 27.8691 186.375 27.7324C186.551 27.5892 186.762 27.5176 187.01 27.5176H187.781V27.4102C187.781 27.3516 187.684 27.2441 187.488 27.0879C187.299 26.9316 187.107 26.7298 186.912 26.4824C186.717 26.235 186.619 25.9551 186.619 25.6426C186.619 25.0632 186.746 24.5749 187 24.1777C187.26 23.7741 187.599 23.4518 188.016 23.2109C188.439 22.9635 188.901 22.7845 189.402 22.6738C189.904 22.5632 190.398 22.5078 190.887 22.5078C191.329 22.5078 191.785 22.5599 192.254 22.6641C192.723 22.7682 193.159 22.9342 193.562 23.1621C193.973 23.3835 194.301 23.6797 194.549 24.0508C194.803 24.4154 194.93 24.8613 194.93 25.3887C194.93 25.9225 194.78 26.3457 194.48 26.6582C194.181 26.9707 193.761 27.127 193.221 27.127C192.654 27.127 192.199 26.9609 191.854 26.6289C191.515 26.2969 191.346 25.8444 191.346 25.2715C191.346 25.0762 191.336 24.8841 191.316 24.6953C191.303 24.5 191.245 24.3405 191.141 24.2168C191.036 24.0866 190.854 24.0215 190.594 24.0215C190.327 24.0215 190.148 24.1126 190.057 24.2949C189.972 24.4707 189.93 24.6725 189.93 24.9004C189.93 25.1608 190.021 25.3952 190.203 25.6035C190.392 25.8118 190.607 26.0104 190.848 26.1992C191.095 26.388 191.31 26.5833 191.492 26.7852C191.681 26.9805 191.775 27.1953 191.775 27.4297V27.5176H193.562C193.803 27.5176 194.012 27.5794 194.188 27.7031C194.363 27.8203 194.451 28.0124 194.451 28.2793C194.451 28.6764 194.321 28.9694 194.061 29.1582C193.8 29.3405 193.491 29.4577 193.133 29.5098C192.775 29.5553 192.446 29.5781 192.146 29.5781Z" fill="white"/>
<path d="M180.184 26.6875C181.258 26.6875 182.199 26.9089 183.006 27.3516C183.82 27.7943 184.454 28.416 184.91 29.2168C185.366 30.0176 185.594 30.9583 185.594 32.0391C185.594 33.1003 185.343 34.0247 184.842 34.8125C184.34 35.5938 183.667 36.2025 182.82 36.6387C181.98 37.0684 181.046 37.2832 180.018 37.2832C178.937 37.2832 177.99 37.0618 177.176 36.6191C176.362 36.1699 175.727 35.5417 175.271 34.7344C174.822 33.9206 174.598 32.9733 174.598 31.8926C174.598 30.8379 174.852 29.9199 175.359 29.1387C175.867 28.3574 176.544 27.7552 177.391 27.332C178.237 26.9023 179.168 26.6875 180.184 26.6875ZM180.74 35.125C180.903 35.125 181.017 35.0404 181.082 34.8711C181.154 34.7018 181.199 34.5163 181.219 34.3145C181.238 34.1061 181.248 33.9466 181.248 33.8359C181.248 33.4648 181.219 33.097 181.16 32.7324C181.102 32.3613 181.027 31.9967 180.936 31.6387C180.903 31.4954 180.841 31.2741 180.75 30.9746C180.659 30.6686 180.548 30.3496 180.418 30.0176C180.288 29.6855 180.145 29.4023 179.988 29.168C179.832 28.9336 179.666 28.8164 179.49 28.8164C179.34 28.8164 179.23 28.901 179.158 29.0703C179.093 29.2396 179.051 29.4284 179.031 29.6367C179.012 29.8385 179.002 29.9915 179.002 30.0957C179.002 30.2715 179.028 30.5547 179.08 30.9453C179.132 31.3294 179.207 31.7591 179.305 32.2344C179.409 32.7096 179.533 33.1686 179.676 33.6113C179.819 34.0475 179.979 34.4089 180.154 34.6953C180.337 34.9818 180.532 35.125 180.74 35.125Z" fill="white"/>
<path d="M173.572 29.8906C173.572 30.5026 173.351 30.9681 172.908 31.2871C172.465 31.6061 171.964 31.7656 171.404 31.7656C170.831 31.7656 170.372 31.6094 170.027 31.2969C169.682 30.9844 169.51 30.5352 169.51 29.9492C169.51 29.6823 169.474 29.4121 169.402 29.1387C169.337 28.8652 169.126 28.7285 168.768 28.7285C168.494 28.7285 168.286 28.862 168.143 29.1289C167.999 29.3958 167.902 29.6953 167.85 30.0273C167.804 30.3594 167.781 30.6263 167.781 30.8281C167.781 31.388 167.872 31.9219 168.055 32.4297C168.237 32.9375 168.527 33.3509 168.924 33.6699C169.321 33.9824 169.835 34.1387 170.467 34.1387C170.838 34.1387 171.206 34.0508 171.57 33.875C171.935 33.6927 172.257 33.5137 172.537 33.3379C172.817 33.1621 173.012 33.0742 173.123 33.0742C173.325 33.0742 173.458 33.1556 173.523 33.3184C173.589 33.4746 173.621 33.6309 173.621 33.7871C173.621 34.373 173.481 34.8841 173.201 35.3203C172.928 35.7565 172.563 36.1211 172.107 36.4141C171.658 36.7005 171.167 36.9154 170.633 37.0586C170.105 37.2083 169.588 37.2832 169.08 37.2832C168.104 37.2832 167.225 37.0749 166.443 36.6582C165.669 36.235 165.053 35.6458 164.598 34.8906C164.148 34.1354 163.924 33.263 163.924 32.2734C163.924 31.1992 164.142 30.2422 164.578 29.4023C165.014 28.5625 165.633 27.9017 166.434 27.4199C167.241 26.9316 168.191 26.6875 169.285 26.6875C169.773 26.6875 170.268 26.7493 170.77 26.873C171.271 26.9902 171.733 27.179 172.156 27.4395C172.579 27.6934 172.921 28.0254 173.182 28.4355C173.442 28.8392 173.572 29.3242 173.572 29.8906Z" fill="white"/>
<path d="M147.586 34.7539C147.586 34.1549 147.726 33.6569 148.006 33.2598C148.286 32.8561 148.65 32.5339 149.1 32.293C149.555 32.0456 150.047 31.8698 150.574 31.7656C151.102 31.6615 151.609 31.6094 152.098 31.6094C152.241 31.6094 152.387 31.6126 152.537 31.6191C152.687 31.6191 152.833 31.6322 152.977 31.6582V29.1191C152.977 28.9564 152.941 28.7676 152.869 28.5527C152.804 28.3379 152.667 28.2305 152.459 28.2305C152.257 28.2305 152.13 28.3151 152.078 28.4844C152.033 28.6471 152.01 28.8034 152.01 28.9531C152.01 29.0182 152.01 29.0866 152.01 29.1582C152.016 29.2233 152.02 29.2917 152.02 29.3633C152.02 30.0339 151.788 30.5059 151.326 30.7793C150.864 31.0462 150.337 31.1797 149.744 31.1797C149.249 31.1797 148.82 31.069 148.455 30.8477C148.09 30.6263 147.908 30.2357 147.908 29.6758C147.908 29.4544 147.951 29.2396 148.035 29.0312C148.126 28.8229 148.24 28.6374 148.377 28.4746C148.774 27.9928 149.272 27.625 149.871 27.3711C150.477 27.1172 151.111 26.9447 151.775 26.8535C152.446 26.7559 153.074 26.707 153.66 26.707C154.324 26.707 154.933 26.8014 155.486 26.9902C156.04 27.179 156.482 27.4948 156.814 27.9375C157.146 28.3737 157.312 28.9629 157.312 29.7051V34.207C157.312 34.3177 157.339 34.4154 157.391 34.5C157.443 34.5846 157.531 34.627 157.654 34.627C157.752 34.627 157.833 34.5977 157.898 34.5391C157.97 34.474 158.055 34.4414 158.152 34.4414C158.341 34.4414 158.481 34.5065 158.572 34.6367C158.67 34.7669 158.719 34.9199 158.719 35.0957C158.719 35.5514 158.579 35.9453 158.299 36.2773C158.025 36.6029 157.684 36.8503 157.273 37.0195C156.863 37.1953 156.45 37.2832 156.033 37.2832C155.545 37.2832 155.05 37.1758 154.549 36.9609C154.054 36.7461 153.712 36.4108 153.523 35.9551C153.191 36.4173 152.736 36.7559 152.156 36.9707C151.583 37.179 151.02 37.2832 150.467 37.2832C149.959 37.2832 149.484 37.1888 149.041 37C148.605 36.8047 148.253 36.5182 147.986 36.1406C147.719 35.763 147.586 35.3008 147.586 34.7539ZM151.99 33.8945C151.99 34.1549 152.052 34.4023 152.176 34.6367C152.299 34.8646 152.511 34.9785 152.811 34.9785C152.869 34.9785 152.924 34.972 152.977 34.959V32.9375C152.866 32.8919 152.752 32.8691 152.635 32.8691C152.387 32.8691 152.218 32.9928 152.127 33.2402C152.036 33.4811 151.99 33.6992 151.99 33.8945Z" fill="white"/>
<path d="M141.814 30.5449C141.814 31.1243 141.642 31.5638 141.297 31.8633C140.958 32.1628 140.509 32.3125 139.949 32.3125H136.014C136.163 32.8724 136.43 33.3444 136.814 33.7285C137.199 34.1061 137.752 34.2949 138.475 34.2949C138.761 34.2949 139.044 34.2363 139.324 34.1191C139.611 33.9954 139.878 33.8522 140.125 33.6895C140.379 33.5267 140.6 33.3867 140.789 33.2695C140.978 33.1458 141.121 33.084 141.219 33.084C141.408 33.084 141.544 33.1523 141.629 33.2891C141.714 33.4193 141.756 33.569 141.756 33.7383C141.756 34.3307 141.616 34.8516 141.336 35.3008C141.062 35.7435 140.698 36.1113 140.242 36.4043C139.793 36.6973 139.298 36.9154 138.758 37.0586C138.224 37.2083 137.697 37.2832 137.176 37.2832C136.154 37.2832 135.252 37.0716 134.471 36.6484C133.689 36.2253 133.077 35.6328 132.635 34.8711C132.199 34.1029 131.98 33.2012 131.98 32.166C131.98 31.0592 132.192 30.0957 132.615 29.2754C133.045 28.4551 133.66 27.8203 134.461 27.3711C135.262 26.9154 136.222 26.6875 137.342 26.6875C138.117 26.6875 138.842 26.834 139.52 27.127C140.203 27.4199 140.757 27.8529 141.18 28.4258C141.603 28.9987 141.814 29.7051 141.814 30.5449ZM135.838 30.8086C135.838 30.8802 135.838 30.9518 135.838 31.0234H136.854C137.101 31.0234 137.27 30.9681 137.361 30.8574C137.452 30.7402 137.498 30.5645 137.498 30.3301C137.498 30.1738 137.479 29.9688 137.439 29.7148C137.4 29.4609 137.322 29.2331 137.205 29.0312C137.094 28.8294 136.932 28.7285 136.717 28.7285C136.521 28.7285 136.365 28.8099 136.248 28.9727C136.131 29.1289 136.043 29.3275 135.984 29.5684C135.926 29.8027 135.887 30.0339 135.867 30.2617C135.848 30.4896 135.838 30.6719 135.838 30.8086Z" fill="white"/>
<path d="M117.195 26.6875C117.462 26.6875 117.664 26.7819 117.801 26.9707C117.944 27.153 118.016 27.3678 118.016 27.6152V28.6016C118.523 28.1198 119.083 27.6803 119.695 27.2832C120.314 26.8861 120.916 26.6875 121.502 26.6875C122.199 26.6875 122.755 26.8893 123.172 27.293C123.589 27.6966 123.878 28.1882 124.041 28.7676C124.386 28.429 124.757 28.1003 125.154 27.7812C125.551 27.4622 125.965 27.2018 126.395 27C126.824 26.7917 127.26 26.6875 127.703 26.6875C128.322 26.6875 128.829 26.8503 129.227 27.1758C129.63 27.4948 129.926 27.9082 130.115 28.416C130.311 28.9173 130.408 29.4447 130.408 29.998V34.0605C130.408 34.2103 130.418 34.3991 130.438 34.627C130.457 34.8483 130.529 35.0111 130.652 35.1152V35.125C130.796 35.2747 130.923 35.4212 131.033 35.5645C131.144 35.7012 131.199 35.8835 131.199 36.1113C131.199 36.3978 131.111 36.6191 130.936 36.7754C130.76 36.9251 130.532 37 130.252 37H126.238C125.971 37 125.763 36.9186 125.613 36.7559C125.464 36.5866 125.389 36.3717 125.389 36.1113C125.389 35.8704 125.444 35.6849 125.555 35.5547C125.672 35.4245 125.786 35.2812 125.896 35.125C126.007 34.9622 126.062 34.7279 126.062 34.4219V31.0527C126.062 30.8704 126.043 30.6784 126.004 30.4766C125.965 30.2682 125.887 30.0892 125.77 29.9395C125.652 29.7897 125.477 29.7148 125.242 29.7148C125.027 29.7148 124.835 29.7734 124.666 29.8906C124.503 30.0078 124.35 30.138 124.207 30.2812V34.334C124.207 34.679 124.262 34.9362 124.373 35.1055C124.484 35.2747 124.594 35.4245 124.705 35.5547C124.816 35.6849 124.871 35.8704 124.871 36.1113C124.871 36.3783 124.796 36.5931 124.646 36.7559C124.503 36.9186 124.295 37 124.021 37H120.037C119.764 37 119.555 36.9186 119.412 36.7559C119.269 36.5866 119.197 36.3717 119.197 36.1113C119.197 35.8704 119.253 35.6849 119.363 35.5547C119.474 35.418 119.585 35.2715 119.695 35.1152C119.806 34.959 119.861 34.7279 119.861 34.4219V31.0527C119.861 30.8704 119.842 30.6784 119.803 30.4766C119.764 30.2682 119.686 30.0892 119.568 29.9395C119.451 29.7897 119.275 29.7148 119.041 29.7148C118.833 29.7148 118.644 29.7734 118.475 29.8906C118.305 30.0013 118.152 30.1315 118.016 30.2812V34.334C118.016 34.6855 118.071 34.946 118.182 35.1152C118.292 35.2845 118.403 35.4342 118.514 35.5645C118.624 35.6882 118.68 35.8704 118.68 36.1113C118.68 36.3717 118.608 36.5866 118.465 36.7559C118.322 36.9186 118.113 37 117.84 37H113.826C113.546 37 113.318 36.9251 113.143 36.7754C112.967 36.6191 112.879 36.3978 112.879 36.1113C112.879 35.8249 112.944 35.6133 113.074 35.4766C113.211 35.3398 113.344 35.1934 113.475 35.0371C113.605 34.8743 113.67 34.6204 113.67 34.2754V30.6523C113.67 30.3594 113.624 30.1413 113.533 29.998C113.442 29.8483 113.338 29.7311 113.221 29.6465C113.104 29.5618 112.999 29.4674 112.908 29.3633C112.817 29.2526 112.771 29.0898 112.771 28.875C112.771 28.6081 112.85 28.4062 113.006 28.2695C113.169 28.1328 113.361 28.0189 113.582 27.9277L115.643 27.0781C115.89 26.974 116.141 26.8828 116.395 26.8047C116.655 26.7266 116.922 26.6875 117.195 26.6875Z" fill="white"/>
<path d="M99.4023 38.4453C99.6497 38.4453 99.8451 38.3346 99.9883 38.1133C100.132 37.8919 100.255 37.6478 100.359 37.3809L96.3848 29.7051C96.2676 29.4772 96.0885 29.2786 95.8477 29.1094C95.6068 28.9336 95.3854 28.7513 95.1836 28.5625C94.9818 28.3737 94.8809 28.1458 94.8809 27.8789C94.8809 27.5859 94.972 27.3678 95.1543 27.2246C95.3366 27.0749 95.5677 27 95.8477 27H101.072C101.352 27 101.583 27.0716 101.766 27.2148C101.948 27.3581 102.039 27.5762 102.039 27.8691C102.039 28.1296 101.98 28.3216 101.863 28.4453C101.746 28.569 101.609 28.6634 101.453 28.7285C101.303 28.7871 101.17 28.8555 101.053 28.9336C100.936 29.0052 100.877 29.1191 100.877 29.2754C100.877 29.4577 100.906 29.64 100.965 29.8223C101.023 30.0046 101.095 30.1803 101.18 30.3496L102.508 32.9961L103.709 30.4961C103.846 30.2096 103.914 29.9036 103.914 29.5781C103.914 29.3047 103.846 29.1159 103.709 29.0117C103.579 28.9076 103.426 28.8262 103.25 28.7676C103.081 28.709 102.928 28.6211 102.791 28.5039C102.661 28.3802 102.596 28.1654 102.596 27.8594C102.596 27.5664 102.687 27.3516 102.869 27.2148C103.058 27.0716 103.289 27 103.562 27H106.414C106.694 27 106.922 27.0749 107.098 27.2246C107.28 27.3678 107.371 27.5859 107.371 27.8789C107.371 28.1068 107.329 28.276 107.244 28.3867C107.16 28.4909 107.039 28.6146 106.883 28.7578C106.603 29.0182 106.391 29.2526 106.248 29.4609C106.105 29.6628 105.952 29.9362 105.789 30.2812L103.133 35.8867C102.892 36.3945 102.635 36.9349 102.361 37.5078C102.094 38.0872 101.785 38.6276 101.434 39.1289C101.082 39.6367 100.662 40.0501 100.174 40.3691C99.6855 40.6947 99.1029 40.8574 98.4258 40.8574C97.8008 40.8574 97.2344 40.737 96.7266 40.4961C96.2253 40.2552 95.8249 39.9036 95.5254 39.4414C95.2324 38.9792 95.0859 38.4225 95.0859 37.7715C95.0859 37.2637 95.2161 36.8307 95.4766 36.4727C95.7435 36.1146 96.1504 35.9355 96.6973 35.9355C97.0553 35.9355 97.3483 36.0202 97.5762 36.1895C97.8105 36.3587 98.0026 36.5671 98.1523 36.8145C98.3086 37.0618 98.4453 37.3092 98.5625 37.5566C98.6862 37.8105 98.8099 38.0221 98.9336 38.1914C99.0638 38.3607 99.2201 38.4453 99.4023 38.4453Z" fill="white"/>
<path d="M85.4082 37.2832C84.7897 37.2832 84.2721 37.127 83.8555 36.8145C83.4453 36.4954 83.1393 36.082 82.9375 35.5742C82.7357 35.0664 82.6348 34.5326 82.6348 33.9727V30.6523C82.6348 30.4115 82.6152 30.2422 82.5762 30.1445C82.5371 30.0404 82.4264 29.9069 82.2441 29.7441C82.1009 29.6139 81.9642 29.4935 81.834 29.3828C81.7103 29.2656 81.6484 29.0964 81.6484 28.875C81.6484 28.6211 81.7298 28.4225 81.8926 28.2793C82.0618 28.1296 82.2539 28.0124 82.4688 27.9277L84.6172 27.0781C84.8711 26.974 85.125 26.8828 85.3789 26.8047C85.6393 26.7266 85.9095 26.6875 86.1895 26.6875C86.4564 26.6875 86.6615 26.7819 86.8047 26.9707C86.9479 27.153 87.0195 27.3678 87.0195 27.6152V32.918C87.0195 33.1003 87.0391 33.2956 87.0781 33.5039C87.1237 33.7122 87.2083 33.8913 87.332 34.041C87.4557 34.1842 87.6348 34.2559 87.8691 34.2559C88.11 34.2559 88.3216 34.2038 88.5039 34.0996C88.6862 33.9889 88.8522 33.8555 89.002 33.6992V30.6523C89.002 30.4049 88.9792 30.2259 88.9336 30.1152C88.8945 29.998 88.7741 29.8613 88.5723 29.7051C88.4225 29.5879 88.2923 29.474 88.1816 29.3633C88.071 29.2526 88.0156 29.0898 88.0156 28.875C88.0156 28.6211 88.097 28.4225 88.2598 28.2793C88.429 28.1296 88.6211 28.0124 88.8359 27.9277L90.9844 27.0781C91.2383 26.974 91.4922 26.8828 91.7461 26.8047C92.0065 26.7266 92.2767 26.6875 92.5566 26.6875C92.8236 26.6875 93.0286 26.7786 93.1719 26.9609C93.3216 27.1432 93.3965 27.3613 93.3965 27.6152V34.0605C93.3965 34.2428 93.403 34.4251 93.416 34.6074C93.4355 34.7832 93.5104 34.946 93.6406 35.0957C93.8034 35.2715 93.9466 35.418 94.0703 35.5352C94.194 35.6523 94.2559 35.8444 94.2559 36.1113C94.2559 36.4043 94.168 36.6257 93.9922 36.7754C93.8164 36.9251 93.5853 37 93.2988 37H91.0723C90.5775 37 90.1413 36.8145 89.7637 36.4434C89.3926 36.0723 89.207 35.6426 89.207 35.1543C88.849 35.4993 88.4583 35.8346 88.0352 36.1602C87.612 36.4857 87.1758 36.7559 86.7266 36.9707C86.2839 37.179 85.8444 37.2832 85.4082 37.2832Z" fill="white"/>
<path d="M81.2188 33.7578C81.2188 34.4219 81.0723 34.9655 80.7793 35.3887C80.4863 35.8118 80.099 36.1406 79.6172 36.375C79.1419 36.6094 78.6243 36.7721 78.0645 36.8633C77.5046 36.9544 76.9544 37 76.4141 37H68.7578C68.4062 37 68.123 36.9154 67.9082 36.7461C67.6999 36.5768 67.5957 36.3066 67.5957 35.9355C67.5957 35.61 67.6608 35.3659 67.791 35.2031C67.9277 35.0339 68.084 34.8971 68.2598 34.793C68.4355 34.6888 68.5885 34.5684 68.7188 34.4316C68.8555 34.2884 68.9238 34.0801 68.9238 33.8066V26.6777C68.9238 26.3913 68.8555 26.1797 68.7188 26.043C68.5885 25.9062 68.4355 25.7891 68.2598 25.6914C68.084 25.5872 67.9277 25.4538 67.791 25.291C67.6608 25.1283 67.5957 24.8809 67.5957 24.5488C67.5957 24.1777 67.6999 23.9076 67.9082 23.7383C68.123 23.569 68.4062 23.4844 68.7578 23.4844H74.7246C75.3626 23.4844 76.0169 23.5527 76.6875 23.6895C77.3646 23.8262 77.9896 24.0508 78.5625 24.3633C79.1354 24.6758 79.5977 25.0924 79.9492 25.6133C80.3073 26.1341 80.4863 26.7786 80.4863 27.5469C80.4863 28.3867 80.2292 29.0475 79.7148 29.5293C79.207 30.0046 78.6016 30.3464 77.8984 30.5547C78.4648 30.6784 78.9987 30.8737 79.5 31.1406C80.0078 31.401 80.4212 31.7461 80.7402 32.1758C81.0592 32.6055 81.2188 33.1328 81.2188 33.7578ZM73.7871 25.4473H73.7285V30.1055H74.0801C74.8158 30.1055 75.3203 29.8939 75.5938 29.4707C75.8737 29.0475 76.0137 28.5007 76.0137 27.8301C76.0137 27.1009 75.8314 26.5215 75.4668 26.0918C75.1022 25.6621 74.5423 25.4473 73.7871 25.4473ZM76.5117 33.5527C76.5117 33.0319 76.3587 32.6022 76.0527 32.2637C75.7533 31.9186 75.3333 31.7461 74.793 31.7461H73.7285V33.416C73.7285 33.9108 73.849 34.3079 74.0898 34.6074C74.3307 34.9004 74.7083 35.0469 75.2227 35.0469C75.6979 35.0469 76.0299 34.9069 76.2188 34.627C76.4141 34.347 76.5117 33.9889 76.5117 33.5527Z" fill="white"/>
<path d="M40.2068 29.1691H13.8022C13.8022 21.8777 19.7131 15.9668 27.0045 15.9668C34.296 15.9668 40.2068 21.8777 40.2068 29.1691Z" fill="#143F2E"/>
<path d="M40.4354 29.3977H13.5737V29.1691C13.5737 25.5817 14.9709 22.2086 17.5074 19.672C20.044 17.1354 23.4172 15.7383 27.0046 15.7383C30.592 15.7383 33.9652 17.1354 36.5017 19.672C39.0383 22.2086 40.4354 25.5817 40.4354 29.1691V29.3977ZM14.0326 28.9406H39.976C39.8537 21.892 34.0817 16.1954 27.004 16.1954C19.9263 16.1954 14.1549 21.892 14.0326 28.9406Z" fill="#3D0A1D"/>
<path d="M39.9085 26.374H14.1005C13.0439 26.374 12.1874 27.2306 12.1874 28.2872V29.7963C12.1874 30.8529 13.0439 31.7095 14.1005 31.7095H39.9085C40.9651 31.7095 41.8217 30.8529 41.8217 29.7963V28.2872C41.8217 27.2306 40.9651 26.374 39.9085 26.374Z" fill="#143F2E"/>
<path d="M39.9086 31.9376H14.1006C12.92 31.9376 11.9589 30.977 11.9589 29.7959V28.2867C11.9589 27.1062 12.9194 26.145 14.1006 26.145H39.9091C41.0897 26.145 42.0509 27.1056 42.0509 28.2867V29.7959C42.0509 30.9764 41.0903 31.9376 39.9091 31.9376H39.9086ZM14.1006 26.6027C13.172 26.6027 12.416 27.3582 12.416 28.2873V29.7964C12.416 30.725 13.1714 31.481 14.1006 31.481H39.9091C40.8377 31.481 41.5937 30.7256 41.5937 29.7964V28.2873C41.5937 27.3587 40.8383 26.6027 39.9091 26.6027H14.1006Z" fill="#3D0A1D"/>
<path d="M40.7771 30.5665H13.232C13.1057 30.5665 13.0034 30.4642 13.0034 30.3379C13.0034 30.2117 13.1057 30.1094 13.232 30.1094H40.7771C40.9034 30.1094 41.0057 30.2117 41.0057 30.3379C41.0057 30.4642 40.9034 30.5665 40.7771 30.5665Z" fill="#3D0A1D"/>
<path d="M13.8022 30.3379H40.2074C40.2074 37.6293 34.2965 43.5402 27.0051 43.5402C19.7137 43.5402 13.8022 37.6293 13.8022 30.3379Z" fill="#EF4136"/>
<path d="M39.7337 32.3523C35.9383 32.4415 35.0451 35.8506 35.0451 35.8506C33.1554 35.3238 30.1286 36.8186 30.1286 36.8186C30.1286 36.8186 27.5971 35.2672 26.4303 35.2238C23.6646 35.1209 22.8377 35.9763 22.8377 35.9763C20.8577 34.7683 17.7383 34.9986 17.7383 34.9986C18.2663 33.9695 16.132 32.4643 16.132 32.4643L13.9069 31.998C14.7234 38.5055 20.2766 43.5403 27.0057 43.5403C33.7349 43.5403 39.0851 38.6878 40.0554 32.3529H39.7349L39.7337 32.3523Z" fill="#A97C50"/>
<path d="M39.7411 33.8269C39.7411 33.8269 35.7005 32.2492 26.98 32.2492C18.2594 32.2492 14.204 33.5007 14.204 33.5007L13.8022 30.3384H40.2074L39.7417 33.8275L39.7411 33.8269Z" fill="#3D0A1D"/>
<path d="M25.9378 39.2586C26.4355 39.3112 26.5401 39.4186 26.8046 39.6352C27.0692 39.8523 27.2898 40.1175 27.6081 40.2723C28.2463 40.5826 29.1098 40.3032 29.4503 39.7678C29.7909 39.2323 29.6721 38.5346 29.2938 37.9975C28.6098 37.0261 27.2995 36.5643 26.0875 36.4603C25.2978 36.3929 24.3475 36.4026 23.7161 36.8758C23.3035 37.1849 22.9149 37.5118 22.7189 37.9643C22.5395 38.3792 22.5538 39.1861 22.9435 39.5603C23.1966 39.8032 23.6189 39.8706 23.9835 39.8101C24.7041 39.6901 25.1572 39.1769 25.9383 39.2592L25.9378 39.2586Z" fill="#EF4136"/>
<path d="M25.9377 39.4584C26.236 39.4939 26.436 39.5859 26.6629 39.7767C26.9577 40.0247 27.2183 40.3213 27.5783 40.4773C28.12 40.7116 28.7846 40.6019 29.2543 40.2562C29.772 39.875 29.9452 39.223 29.7943 38.6104C29.6355 37.9659 29.1583 37.4442 28.6217 37.0796C27.5315 36.3379 25.9903 36.0824 24.6995 36.2853C23.4972 36.4739 22.26 37.551 22.4252 38.8527C22.5149 39.5607 22.9943 40.0287 23.7229 40.031C24.5183 40.0339 25.1372 39.3979 25.9372 39.459C26.1937 39.4784 26.1926 39.0784 25.9372 39.059C25.3663 39.0156 24.9206 39.2716 24.4097 39.4767C23.8989 39.6819 23.1817 39.7624 22.9183 39.1767C22.4195 38.0699 23.5372 36.9664 24.5446 36.7219C25.1103 36.5847 25.7252 36.6127 26.2989 36.6824C26.8772 36.7527 27.4595 36.9059 27.9812 37.1682C28.5029 37.4304 28.9657 37.7916 29.2435 38.2973C29.5435 38.843 29.5429 39.571 28.9915 39.955C28.7457 40.1264 28.4355 40.2156 28.136 40.2013C27.7623 40.1842 27.4915 39.9859 27.2235 39.743C27.0417 39.5779 26.8595 39.3996 26.6509 39.2664C26.4337 39.1282 26.188 39.0887 25.9372 39.059C25.6863 39.0293 25.684 39.4287 25.9372 39.459L25.9377 39.4584Z" fill="#3D0A1D"/>
<path d="M24.1154 38.4344C24.0063 38.4344 23.9097 38.3561 23.8903 38.2447C23.8686 38.1207 23.9514 38.0024 24.0754 37.9807C24.1086 37.9744 24.812 37.8361 24.9206 37.1395C24.94 37.015 25.0566 36.9287 25.1817 36.9487C25.3063 36.9681 25.392 37.0847 25.3726 37.2098C25.2132 38.2355 24.1977 38.4235 24.1549 38.431C24.1417 38.4333 24.1286 38.4344 24.1154 38.4344Z" fill="#3D0A1D"/>
<path d="M26.7754 38.7619C25.4765 38.7619 24.7365 37.9716 24.7 37.9316C24.6148 37.8385 24.6211 37.6939 24.7142 37.6088C24.8074 37.5236 24.9514 37.5299 25.0365 37.6231C25.0748 37.6642 25.9542 38.5871 27.4851 38.2173C27.608 38.1876 27.7314 38.2631 27.7611 38.3859C27.7908 38.5088 27.7154 38.6322 27.5925 38.6619C27.3 38.7328 27.0268 38.7625 26.7748 38.7625L26.7754 38.7619Z" fill="#3D0A1D"/>
<path d="M17.9674 35.1439C17.8628 35.1439 17.7686 35.0713 17.7446 34.965C17.3743 33.3056 15.6817 32.4627 15.6646 32.4542C15.5508 32.3987 15.504 32.2622 15.5594 32.1484C15.6148 32.0347 15.7514 31.9879 15.8651 32.0433C15.9428 32.081 17.7731 32.993 18.1908 34.865C18.2183 34.9884 18.1406 35.1102 18.0177 35.1382C18.0011 35.1422 17.984 35.1439 17.9674 35.1439Z" fill="#3D0A1D"/>
<path d="M22.7674 36.1725C22.724 36.1725 22.68 36.16 22.6411 36.1342C20.9149 34.9845 17.3617 35.2702 17.3257 35.2731C17.2 35.284 17.0891 35.1902 17.0789 35.0645C17.068 34.9388 17.1617 34.828 17.2874 34.8177C17.4394 34.8045 21.0354 34.5154 22.8949 35.7537C23 35.8234 23.0286 35.9657 22.9583 36.0708C22.9143 36.1371 22.8417 36.1725 22.768 36.1725H22.7674Z" fill="#3D0A1D"/>
<path d="M35.1646 36.0138C35.1452 36.0138 35.1258 36.0115 35.1063 36.0063C34.984 35.9743 34.9115 35.8492 34.9435 35.7275C35.4715 33.7172 36.8412 32.844 37.8972 32.4658C39.0303 32.06 40.0286 32.1246 40.0703 32.1275C40.196 32.1366 40.2909 32.2458 40.2823 32.3715C40.2732 32.4972 40.1646 32.5932 40.0383 32.5835C40.0286 32.5829 39.0806 32.5235 38.036 32.9018C36.6589 33.4 35.7669 34.3898 35.3852 35.8435C35.3583 35.9463 35.2658 36.0143 35.164 36.0143L35.1646 36.0138Z" fill="#3D0A1D"/>
<path d="M27.0046 43.7688C23.4172 43.7688 20.044 42.3717 17.5074 39.8351C14.9709 37.2985 13.5737 33.9254 13.5737 30.3379V30.1094H40.4354V30.3379C40.4354 33.9254 39.0383 37.2985 36.5017 39.8351C33.9652 42.3717 30.592 43.7688 27.0046 43.7688ZM14.0326 30.5665C14.1549 37.6151 19.9269 43.3117 27.0046 43.3117C34.0823 43.3117 39.8537 37.6151 39.9766 30.5665H14.0326Z" fill="#3D0A1D"/>
<path d="M25.768 34.5959C25.696 34.5959 25.6251 34.5622 25.5805 34.4982C25.508 34.3947 25.5331 34.2525 25.6365 34.1799L25.656 34.1662C26.472 33.5942 27.5645 33.5999 28.3743 34.1816C28.4765 34.2553 28.5005 34.3982 28.4268 34.5005C28.3531 34.6027 28.2103 34.6267 28.108 34.553C27.4554 34.085 26.576 34.0799 25.9183 34.541L25.8983 34.5547C25.8583 34.5827 25.8125 34.5959 25.7674 34.5959H25.768Z" fill="#3D0A1D"/>
<path d="M30.1651 37.022C30.0931 37.022 30.0222 36.9883 29.9777 36.9249C29.9051 36.8215 29.9302 36.6792 30.0331 36.6066C30.1445 36.5283 32.7942 34.7038 35.6971 35.874C35.8142 35.9215 35.8708 36.0546 35.8234 36.1718C35.776 36.2889 35.6428 36.3455 35.5257 36.298C32.8577 35.222 30.3211 36.9632 30.2954 36.9809C30.2554 37.0089 30.2097 37.022 30.1645 37.022H30.1651Z" fill="#3D0A1D"/>
<path d="M30.6297 37.4335C30.1863 36.1609 28.8051 35.4884 27.5731 35.2061C26.2971 34.9141 24.8383 34.9592 23.6109 35.4358C22.9463 35.6941 22.3566 36.0929 21.9577 36.6929C21.8149 36.9078 22.1611 37.1084 22.3029 36.8947C23.1469 35.6255 24.964 35.3775 26.3657 35.4438C27.7674 35.5101 29.7297 36.0655 30.2434 37.5398C30.3274 37.7815 30.7143 37.6775 30.6291 37.4335H30.6297Z" fill="#3D0A1D"/>
<path d="M16.3725 29.6085C17.0333 29.6085 17.569 29.0728 17.569 28.4119C17.569 27.7511 17.0333 27.2153 16.3725 27.2153C15.7116 27.2153 15.1759 27.7511 15.1759 28.4119C15.1759 29.0728 15.7116 29.6085 16.3725 29.6085Z" fill="#EFCF9C"/>
<path d="M16.3725 29.8366C15.5868 29.8366 14.9474 29.1972 14.9474 28.4115C14.9474 27.6258 15.5868 26.9863 16.3725 26.9863C17.1582 26.9863 17.7977 27.6258 17.7977 28.4115C17.7977 29.1972 17.1582 29.8366 16.3725 29.8366ZM16.3725 27.444C15.8388 27.444 15.4045 27.8783 15.4045 28.412C15.4045 28.9458 15.8388 29.38 16.3725 29.38C16.9062 29.38 17.3405 28.9458 17.3405 28.412C17.3405 27.8783 16.9062 27.444 16.3725 27.444Z" fill="#3D0A1D"/>
<path d="M33.9977 22.1539C33.8303 22.0167 33.6423 21.9001 33.508 21.7304C33.3737 21.5607 33.3034 21.3156 33.4091 21.127C33.5434 20.8876 33.8725 20.8573 34.1457 20.8796C34.9988 20.9504 35.8583 21.2784 36.4263 21.919C36.9943 22.5596 37.2114 23.5401 36.8245 24.3047C36.6394 24.6704 36.2748 24.9899 35.8663 24.955C35.5708 24.9299 35.1063 24.6876 34.984 24.407C34.9114 24.2407 34.8983 24.0556 34.8863 23.875C34.8417 23.2036 34.5314 22.5904 33.9977 22.1539Z" fill="#EFCF9C"/>
<path d="M34.1394 22.0121C33.9525 21.8636 33.6559 21.7047 33.5828 21.4613C33.4914 21.1579 33.7525 21.0779 33.9925 21.0733C34.4399 21.0647 34.9251 21.1944 35.3325 21.3761C36.1748 21.7516 36.8342 22.5316 36.8199 23.4887C36.8131 23.9293 36.6365 24.4499 36.2262 24.6733C35.8651 24.8699 35.2959 24.651 35.1457 24.2687C35.0708 24.079 35.0914 23.847 35.0622 23.6476C35.0302 23.4304 34.9731 23.2219 34.8879 23.019C34.7222 22.6247 34.4651 22.2876 34.1399 22.0116C33.9445 21.8459 33.6605 22.1276 33.8571 22.2944C34.2462 22.6241 34.5234 23.0407 34.6377 23.5413C34.7348 23.9681 34.6554 24.4333 35.0045 24.7607C35.2657 25.0059 35.6645 25.1881 36.0279 25.1504C36.4411 25.1076 36.7862 24.7944 36.9788 24.4419C37.4085 23.6544 37.2314 22.6493 36.7091 21.951C36.1485 21.2019 35.2319 20.8081 34.3234 20.6984C33.9222 20.6499 33.3845 20.6561 33.2062 21.0996C32.9925 21.631 33.4994 22.011 33.8582 22.2956C34.0577 22.4539 34.3428 22.1727 34.1411 22.0127L34.1394 22.0121Z" fill="#3D0A1D"/>
<path d="M32.2852 19.68C32.2315 19.6165 32.1995 19.5291 32.2218 19.4491C32.2441 19.368 32.3172 19.308 32.3978 19.2828C32.4783 19.2577 32.5646 19.2622 32.6481 19.2748C32.9646 19.3211 33.4183 19.5182 33.6058 19.7948C33.6606 19.876 33.6789 19.9902 33.6235 20.0708C33.5515 20.1742 33.3995 20.1765 33.2766 20.1468C33.1018 20.1045 32.9561 20.0022 32.7909 19.9394C32.6143 19.872 32.4161 19.8342 32.2858 19.6805L32.2852 19.68Z" fill="#EFCF9C"/>
<path d="M32.4578 19.5788C32.3218 19.3674 32.8309 19.5211 32.9052 19.5479C33.0338 19.5948 33.3006 19.6982 33.3755 19.8297C33.4515 19.8742 33.4532 19.9057 33.3806 19.9245C33.3395 19.9639 33.2938 19.9651 33.244 19.9279C33.1509 19.9057 33.0606 19.8405 32.9726 19.8005C32.788 19.7171 32.5743 19.6845 32.4263 19.5388C32.2429 19.3577 31.96 19.6405 32.1435 19.8217C32.3098 19.9857 32.5046 20.0417 32.7155 20.1251C32.9263 20.2085 33.1446 20.3599 33.3915 20.3611C33.8349 20.3628 33.9766 19.9137 33.7058 19.5988C33.4543 19.3062 33.0263 19.1165 32.6475 19.0742C32.2235 19.0274 31.8412 19.3605 32.1126 19.7805C32.2515 19.9959 32.5983 19.7959 32.4578 19.5788Z" fill="#3D0A1D"/>
</g>
<defs>
<clipPath id="clip0_509_1015">
<rect width="240" height="60" rx="16" fill="white"/>
</clipPath>
</defs>
</svg>
