<svg width="32" height="32" viewBox="0 0 32 32" fill="none" xmlns="http://www.w3.org/2000/svg">
  <path
    d="M29.2069 15.1691H2.80231C2.80231 7.87765 8.71316 1.9668 16.0046 1.9668C23.296 1.9668 29.2069 7.87765 29.2069 15.1691Z"
    fill="#143F2E" />
  <path
    d="M29.4354 15.3977H2.57373V15.1691C2.57373 11.5817 3.97087 8.20857 6.50744 5.672C9.04402 3.13542 12.4172 1.73828 16.0046 1.73828C19.592 1.73828 22.9652 3.13542 25.5017 5.672C28.0383 8.20857 29.4354 11.5817 29.4354 15.1691V15.3977ZM3.03259 14.9406H28.976C28.8537 7.892 23.0817 2.19542 16.004 2.19542C8.9263 2.19542 3.15487 7.892 3.03259 14.9406Z"
    fill="#3D0A1D" />
  <path
    d="M28.9086 12.3743H3.10058C2.04398 12.3743 1.18744 13.2308 1.18744 14.2874V15.7966C1.18744 16.8532 2.04398 17.7097 3.10058 17.7097H28.9086C29.9652 17.7097 30.8217 16.8532 30.8217 15.7966V14.2874C30.8217 13.2308 29.9652 12.3743 28.9086 12.3743Z"
    fill="#143F2E" />
  <path
    d="M28.9086 17.9377H3.10058C1.92 17.9377 0.958862 16.9771 0.958862 15.796V14.2869C0.958862 13.1063 1.91943 12.1451 3.10058 12.1451H28.9091C30.0897 12.1451 31.0509 13.1057 31.0509 14.2869V15.796C31.0509 16.9766 30.0903 17.9377 28.9091 17.9377H28.9086ZM3.10058 12.6029C2.172 12.6029 1.41601 13.3583 1.41601 14.2874V15.7966C1.41601 16.7251 2.17143 17.4811 3.10058 17.4811H28.9091C29.8377 17.4811 30.5937 16.7257 30.5937 15.7966V14.2874C30.5937 13.3589 29.8383 12.6029 28.9091 12.6029H3.10058Z"
    fill="#3D0A1D" />
  <path
    d="M29.7771 16.5663H2.23199C2.1057 16.5663 2.00342 16.464 2.00342 16.3377C2.00342 16.2114 2.1057 16.1091 2.23199 16.1091H29.7771C29.9034 16.1091 30.0057 16.2114 30.0057 16.3377C30.0057 16.464 29.9034 16.5663 29.7771 16.5663Z"
    fill="#3D0A1D" />
  <path
    d="M2.80231 16.3378H29.2074C29.2074 23.6292 23.2966 29.5401 16.0052 29.5401C8.71373 29.5401 2.80231 23.6292 2.80231 16.3378Z"
    fill="#EF4136" />
  <path
    d="M28.7337 18.3526C24.9383 18.4417 24.0451 21.8509 24.0451 21.8509C22.1554 21.324 19.1286 22.8189 19.1286 22.8189C19.1286 22.8189 16.5971 21.2674 15.4303 21.224C12.6646 21.1211 11.8377 21.9766 11.8377 21.9766C9.85772 20.7686 6.73829 20.9989 6.73829 20.9989C7.26629 19.9697 5.132 18.4646 5.132 18.4646L2.90686 17.9983C3.72343 24.5057 9.27657 29.5406 16.0057 29.5406C22.7349 29.5406 28.0851 24.688 29.0554 18.3531H28.7349L28.7337 18.3526Z"
    fill="#A97C50" />
  <path
    d="M28.7412 19.8268C28.7412 19.8268 24.7006 18.2491 15.98 18.2491C7.25945 18.2491 3.20402 19.5005 3.20402 19.5005L2.80231 16.3383H29.2074L28.7417 19.8274L28.7412 19.8268Z"
    fill="#3D0A1D" />
  <path
    d="M14.9377 25.2583C15.4354 25.3108 15.54 25.4183 15.8046 25.6348C16.0691 25.852 16.2897 26.1171 16.608 26.272C17.2463 26.5823 18.1097 26.3028 18.4503 25.7674C18.7909 25.232 18.672 24.5343 18.2937 23.9971C17.6097 23.0257 16.2994 22.564 15.0874 22.46C14.2977 22.3925 13.3474 22.4023 12.716 22.8754C12.3034 23.1845 11.9149 23.5114 11.7189 23.964C11.5394 24.3788 11.5537 25.1857 11.9434 25.56C12.1966 25.8028 12.6189 25.8703 12.9834 25.8097C13.704 25.6897 14.1571 25.1765 14.9383 25.2588L14.9377 25.2583Z"
    fill="#EF4136" />
  <path
    d="M14.9377 25.4583C15.236 25.4938 15.436 25.5858 15.6629 25.7766C15.9577 26.0246 16.2183 26.3212 16.5783 26.4772C17.12 26.7115 17.7846 26.6018 18.2543 26.256C18.772 25.8749 18.9452 25.2229 18.7943 24.6103C18.6355 23.9658 18.1583 23.444 17.6217 23.0795C16.5315 22.3378 14.9903 22.0823 13.6995 22.2852C12.4972 22.4738 11.26 23.5509 11.4252 24.8526C11.5149 25.5606 11.9943 26.0286 12.7229 26.0309C13.5183 26.0338 14.1372 25.3978 14.9372 25.4589C15.1937 25.4783 15.1926 25.0783 14.9372 25.0589C14.3663 25.0155 13.9206 25.2715 13.4097 25.4766C12.8989 25.6818 12.1817 25.7623 11.9183 25.1766C11.4195 24.0698 12.5372 22.9663 13.5446 22.7218C14.1103 22.5846 14.7252 22.6126 15.2989 22.6823C15.8772 22.7526 16.4595 22.9058 16.9812 23.168C17.5029 23.4303 17.9657 23.7915 18.2435 24.2972C18.5435 24.8429 18.5429 25.5709 17.9915 25.9549C17.7457 26.1263 17.4355 26.2155 17.136 26.2012C16.7623 26.184 16.4915 25.9858 16.2235 25.7429C16.0417 25.5778 15.8595 25.3995 15.6509 25.2663C15.4337 25.128 15.188 25.0886 14.9372 25.0589C14.6863 25.0292 14.684 25.4286 14.9372 25.4589L14.9377 25.4583Z"
    fill="#3D0A1D" />
  <path
    d="M13.1154 24.4343C13.0063 24.4343 12.9097 24.356 12.8903 24.2446C12.8686 24.1206 12.9514 24.0023 13.0754 23.9806C13.1086 23.9743 13.812 23.836 13.9206 23.1394C13.94 23.0148 14.0566 22.9286 14.1817 22.9486C14.3063 22.968 14.392 23.0846 14.3726 23.2097C14.2132 24.2354 13.1977 24.4234 13.1549 24.4308C13.1417 24.4331 13.1286 24.4343 13.1154 24.4343Z"
    fill="#3D0A1D" />
  <path
    d="M15.7754 24.7617C14.4766 24.7617 13.7366 23.9714 13.7 23.9314C13.6149 23.8382 13.6212 23.6937 13.7143 23.6085C13.8074 23.5234 13.9514 23.5297 14.0366 23.6228C14.0749 23.6639 14.9543 24.5868 16.4852 24.2171C16.608 24.1874 16.7314 24.2628 16.7612 24.3857C16.7909 24.5085 16.7154 24.6319 16.5926 24.6617C16.3 24.7325 16.0269 24.7622 15.7749 24.7622L15.7754 24.7617Z"
    fill="#3D0A1D" />
  <path
    d="M6.96742 21.144C6.86285 21.144 6.76856 21.0714 6.74456 20.9651C6.37428 19.3057 4.68171 18.4629 4.66456 18.4543C4.55085 18.3989 4.50399 18.2623 4.55942 18.1486C4.61485 18.0349 4.75142 17.988 4.86513 18.0434C4.94285 18.0811 6.77313 18.9931 7.19085 20.8651C7.21828 20.9886 7.14056 21.1103 7.01771 21.1383C7.00113 21.1423 6.98399 21.144 6.96742 21.144Z"
    fill="#3D0A1D" />
  <path
    d="M11.7674 22.1725C11.724 22.1725 11.68 22.16 11.6411 22.1342C9.91486 20.9845 6.36172 21.2702 6.32572 21.2731C6.2 21.284 6.08914 21.1902 6.07886 21.0645C6.068 20.9388 6.16172 20.828 6.28743 20.8177C6.43943 20.8045 10.0354 20.5154 11.8949 21.7537C12 21.8234 12.0286 21.9657 11.9583 22.0708C11.9143 22.1371 11.8417 22.1725 11.768 22.1725H11.7674Z"
    fill="#3D0A1D" />
  <path
    d="M24.1645 22.0138C24.1451 22.0138 24.1257 22.0115 24.1063 22.0063C23.984 21.9743 23.9114 21.8492 23.9434 21.7275C24.4714 19.7172 25.8411 18.844 26.8971 18.4658C28.0303 18.06 29.0285 18.1246 29.0703 18.1275C29.196 18.1366 29.2908 18.2458 29.2823 18.3715C29.2731 18.4972 29.1645 18.5932 29.0383 18.5835C29.0285 18.5829 28.0805 18.5235 27.036 18.9018C25.6588 19.4 24.7668 20.3898 24.3851 21.8435C24.3583 21.9463 24.2657 22.0143 24.164 22.0143L24.1645 22.0138Z"
    fill="#3D0A1D" />
  <path
    d="M16.0046 29.7686C12.4172 29.7686 9.04402 28.3714 6.50744 25.8348C3.97087 23.2983 2.57373 19.9251 2.57373 16.3377V16.1091H29.4354V16.3377C29.4354 19.9251 28.0383 23.2983 25.5017 25.8348C22.9652 28.3714 19.592 29.7686 16.0046 29.7686ZM3.03259 16.5663C3.15487 23.6148 8.92687 29.3114 16.0046 29.3114C23.0823 29.3114 28.8537 23.6148 28.9766 16.5663H3.03259Z"
    fill="#3D0A1D" />
  <path
    d="M14.768 20.596C14.696 20.596 14.6252 20.5623 14.5806 20.4983C14.508 20.3949 14.5332 20.2526 14.6366 20.18L14.656 20.1663C15.472 19.5943 16.5646 19.6 17.3743 20.1817C17.4766 20.2554 17.5006 20.3983 17.4269 20.5006C17.3532 20.6029 17.2103 20.6269 17.108 20.5532C16.4555 20.0852 15.576 20.08 14.9183 20.5412L14.8983 20.5549C14.8583 20.5829 14.8126 20.596 14.7675 20.596H14.768Z"
    fill="#3D0A1D" />
  <path
    d="M19.1652 23.0223C19.0932 23.0223 19.0223 22.9886 18.9777 22.9252C18.9052 22.8217 18.9303 22.6794 19.0332 22.6069C19.1446 22.5286 21.7943 20.704 24.6972 21.8743C24.8143 21.9217 24.8709 22.0549 24.8234 22.172C24.776 22.2892 24.6429 22.3457 24.5257 22.2983C21.8577 21.2223 19.3212 22.9634 19.2954 22.9812C19.2554 23.0092 19.2097 23.0223 19.1646 23.0223H19.1652Z"
    fill="#3D0A1D" />
  <path
    d="M19.6297 23.4338C19.1863 22.1612 17.8051 21.4886 16.5731 21.2063C15.2971 20.9143 13.8383 20.9595 12.6109 21.436C11.9463 21.6943 11.3566 22.0932 10.9577 22.6932C10.8149 22.908 11.1611 23.1086 11.3029 22.8949C12.1469 21.6258 13.964 21.3778 15.3657 21.444C16.7674 21.5103 18.7297 22.0658 19.2434 23.54C19.3274 23.7818 19.7143 23.6778 19.6291 23.4338H19.6297Z"
    fill="#3D0A1D" />
  <path
    d="M5.3726 15.6086C6.03345 15.6086 6.56917 15.0729 6.56917 14.412C6.56917 13.7512 6.03345 13.2155 5.3726 13.2155C4.71175 13.2155 4.17603 13.7512 4.17603 14.412C4.17603 15.0729 4.71175 15.6086 5.3726 15.6086Z"
    fill="#EFCF9C" />
  <path
    d="M5.37259 15.8366C4.58688 15.8366 3.94745 15.1972 3.94745 14.4115C3.94745 13.6258 4.58688 12.9863 5.37259 12.9863C6.15831 12.9863 6.79773 13.6258 6.79773 14.4115C6.79773 15.1972 6.15831 15.8366 5.37259 15.8366ZM5.37259 13.444C4.83888 13.444 4.40459 13.8783 4.40459 14.412C4.40459 14.9458 4.83888 15.38 5.37259 15.38C5.90631 15.38 6.34059 14.9458 6.34059 14.412C6.34059 13.8783 5.90631 13.444 5.37259 13.444Z"
    fill="#3D0A1D" />
  <path
    d="M22.9977 8.15374C22.8303 8.01659 22.6423 7.90002 22.508 7.73031C22.3737 7.56059 22.3035 7.31545 22.4092 7.12688C22.5435 6.88745 22.8726 6.85717 23.1457 6.87945C23.9989 6.95031 24.8583 7.27831 25.4263 7.91888C25.9943 8.55945 26.2115 9.54002 25.8246 10.3046C25.6395 10.6703 25.2749 10.9897 24.8663 10.9549C24.5709 10.9297 24.1063 10.6875 23.984 10.4069C23.9115 10.2406 23.8983 10.0555 23.8863 9.87488C23.8417 9.20345 23.5315 8.59031 22.9977 8.15374Z"
    fill="#EFCF9C" />
  <path
    d="M23.1394 8.01202C22.9526 7.86345 22.656 7.70459 22.5829 7.46117C22.4914 7.15774 22.7526 7.07774 22.9926 7.07317C23.44 7.06459 23.9252 7.19431 24.3326 7.37602C25.1749 7.75145 25.8343 8.53145 25.82 9.48859C25.8132 9.92917 25.6366 10.4497 25.2263 10.6732C24.8652 10.8697 24.296 10.6509 24.1457 10.2686C24.0709 10.0789 24.0914 9.84688 24.0623 9.64745C24.0303 9.43031 23.9732 9.22174 23.888 9.01888C23.7223 8.62459 23.4652 8.28745 23.14 8.01145C22.9446 7.84574 22.6606 8.12745 22.8572 8.29431C23.2463 8.62402 23.5234 9.04059 23.6377 9.54117C23.7349 9.96802 23.6554 10.4332 24.0046 10.7606C24.2657 11.0057 24.6646 11.188 25.028 11.1503C25.4412 11.1075 25.7863 10.7943 25.9789 10.4417C26.4086 9.65431 26.2314 8.64917 25.7092 7.95088C25.1486 7.20174 24.232 6.80802 23.3234 6.69831C22.9223 6.64974 22.3846 6.65602 22.2063 7.09945C21.9926 7.63088 22.4994 8.01088 22.8583 8.29545C23.0577 8.45374 23.3429 8.17259 23.1412 8.01259L23.1394 8.01202Z"
    fill="#3D0A1D" />
  <path
    d="M21.2851 5.67996C21.2314 5.61654 21.1994 5.52911 21.2217 5.44911C21.244 5.36796 21.3171 5.30796 21.3977 5.28282C21.4783 5.25768 21.5646 5.26225 21.648 5.27482C21.9646 5.32111 22.4183 5.51825 22.6057 5.79482C22.6606 5.87596 22.6789 5.99025 22.6234 6.07082C22.5514 6.17425 22.3994 6.17654 22.2766 6.14682C22.1017 6.10454 21.956 6.00225 21.7909 5.93939C21.6143 5.87196 21.416 5.83425 21.2857 5.68054L21.2851 5.67996Z"
    fill="#EFCF9C" />
  <path
    d="M21.4577 5.5788C21.3217 5.36737 21.8308 5.52109 21.9051 5.54794C22.0337 5.5948 22.3005 5.69823 22.3754 5.82966C22.4514 5.87423 22.4531 5.90566 22.3805 5.92451C22.3394 5.96394 22.2937 5.96509 22.244 5.92794C22.1508 5.90566 22.0605 5.84051 21.9725 5.80051C21.788 5.71709 21.5743 5.68451 21.4263 5.5388C21.2428 5.35766 20.96 5.64051 21.1434 5.82166C21.3097 5.98566 21.5045 6.04166 21.7154 6.12509C21.9263 6.20851 22.1445 6.35994 22.3914 6.36109C22.8348 6.3628 22.9765 5.91366 22.7057 5.5988C22.4543 5.30623 22.0263 5.11651 21.6474 5.07423C21.2234 5.02737 20.8411 5.36051 21.1125 5.78051C21.2514 5.99594 21.5983 5.79594 21.4577 5.5788Z"
    fill="#3D0A1D" />
</svg>